  0
SECTION
  2
BLOCKS
  0
ENDSEC
  0
SECTION
  2
ENTITIES
  0
LINE
  8
0
 10
89.4113
 20
80.135
 11
80.447
 21
68.958
  0
LINE
  8
0
 10
80.447
 20
68.958
 11
74.9533
 21
74.9533
  0
LINE
  8
0
 10
74.9533
 20
74.9533
 11
68.1355
 21
81.2007
  0
LINE
  8
0
 10
68.1355
 20
81.2007
 11
60.7991
 21
86.8301
  0
LINE
  8
0
 10
60.7991
 20
86.8301
 11
53
 21
91.7987
  0
LINE
  8
0
 10
53
 20
91.7987
 11
44.7975
 21
96.0686
  0
LINE
  8
0
 10
44.7975
 20
96.0686
 11
36.2541
 21
99.6074
  0
LINE
  8
0
 10
36.2541
 20
99.6074
 11
27.4348
 21
102.388
  0
LINE
  8
0
 10
27.4348
 20
102.388
 11
18.4067
 21
104.39
  0
LINE
  8
0
 10
18.4067
 20
104.39
 11
9.23849
 21
105.597
  0
LINE
  8
0
 10
9.23849
 20
105.597
 11
0
 21
106
  0
LINE
  8
0
 10
0
 20
106
 11
-9.23849
 21
105.597
  0
LINE
  8
0
 10
-9.23849
 20
105.597
 11
-18.4067
 21
104.39
  0
LINE
  8
0
 10
-18.4067
 20
104.39
 11
-27.4348
 21
102.388
  0
LINE
  8
0
 10
-27.4348
 20
102.388
 11
-36.2541
 21
99.6074
  0
LINE
  8
0
 10
-36.2541
 20
99.6074
 11
-44.7975
 21
96.0686
  0
LINE
  8
0
 10
-44.7975
 20
96.0686
 11
-53
 21
91.7987
  0
LINE
  8
0
 10
-53
 20
91.7987
 11
-60.7991
 21
86.8301
  0
LINE
  8
0
 10
-60.7991
 20
86.8301
 11
-68.1355
 21
81.2007
  0
LINE
  8
0
 10
-68.1355
 20
81.2007
 11
-74.9533
 21
74.9533
  0
LINE
  8
0
 10
-74.9533
 20
74.9533
 11
-81.2007
 21
68.1355
  0
LINE
  8
0
 10
-81.2007
 20
68.1355
 11
-86.8301
 21
60.7991
  0
LINE
  8
0
 10
-86.8301
 20
60.7991
 11
-89.9099
 21
55.9648
  0
LINE
  8
0
 10
-89.9099
 20
55.9648
 11
-82.1558
 21
58.2617
  0
LINE
  8
0
 10
-82.1558
 20
58.2617
 11
-79.6408
 21
49.7713
  0
LINE
  8
0
 10
-79.6408
 20
49.7713
 11
-77.0003
 21
53.9162
  0
LINE
  8
0
 10
-77.0003
 20
53.9162
 11
-72.0082
 21
60.422
  0
LINE
  8
0
 10
-72.0082
 20
60.422
 11
-66.468
 21
66.468
  0
LINE
  8
0
 10
-66.468
 20
66.468
 11
-60.422
 21
72.0082
  0
LINE
  8
0
 10
-60.422
 20
72.0082
 11
-53.9162
 21
77.0003
  0
LINE
  8
0
 10
-53.9162
 20
77.0003
 11
-47
 21
81.4064
  0
LINE
  8
0
 10
-47
 20
81.4064
 11
-39.7261
 21
85.1929
  0
LINE
  8
0
 10
-39.7261
 20
85.1929
 11
-32.1499
 21
88.3311
  0
LINE
  8
0
 10
-32.1499
 20
88.3311
 11
-24.329
 21
90.797
  0
LINE
  8
0
 10
-24.329
 20
90.797
 11
-16.3229
 21
92.5719
  0
LINE
  8
0
 10
-16.3229
 20
92.5719
 11
-8.19263
 21
93.6423
  0
LINE
  8
0
 10
-8.19263
 20
93.6423
 11
0
 21
94
  0
LINE
  8
0
 10
0
 20
94
 11
8.19263
 21
93.6423
  0
LINE
  8
0
 10
8.19263
 20
93.6423
 11
16.3229
 21
92.5719
  0
LINE
  8
0
 10
16.3229
 20
92.5719
 11
24.329
 21
90.797
  0
LINE
  8
0
 10
24.329
 20
90.797
 11
32.1499
 21
88.3311
  0
LINE
  8
0
 10
32.1499
 20
88.3311
 11
39.7261
 21
85.1929
  0
LINE
  8
0
 10
39.7261
 20
85.1929
 11
47
 21
81.4064
  0
LINE
  8
0
 10
47
 20
81.4064
 11
53.9162
 21
77.0003
  0
LINE
  8
0
 10
53.9162
 20
77.0003
 11
60.422
 21
72.0082
  0
LINE
  8
0
 10
60.422
 20
72.0082
 11
66.468
 21
66.468
  0
LINE
  8
0
 10
66.468
 20
66.468
 11
71.2351
 21
61.2657
  0
LINE
  8
0
 10
71.2351
 20
61.2657
 11
58.7512
 21
54.4453
  0
LINE
  8
0
 10
58.7512
 20
54.4453
 11
89.4951
 21
48.8941
  0
LINE
  8
0
 10
89.4951
 20
48.8941
 11
89.4113
 21
80.135
  0
LINE
  8
0
 10
15.2202
 20
-40.6967
 11
16.4311
 21
-40.5373
  0
LINE
  8
0
 10
16.4311
 20
-40.5373
 11
17.6235
 21
-40.273
  0
LINE
  8
0
 10
17.6235
 20
-40.273
 11
18.7883
 21
-39.9057
  0
LINE
  8
0
 10
18.7883
 20
-39.9057
 11
19.9167
 21
-39.4383
  0
LINE
  8
0
 10
19.9167
 20
-39.4383
 11
21
 21
-38.8744
  0
LINE
  8
0
 10
21
 20
-38.8744
 11
22.0301
 21
-38.2181
  0
LINE
  8
0
 10
22.0301
 20
-38.2181
 11
22.999
 21
-37.4746
  0
LINE
  8
0
 10
22.999
 20
-37.4746
 11
23.8995
 21
-36.6495
  0
LINE
  8
0
 10
23.8995
 20
-36.6495
 11
24.7246
 21
-35.749
  0
LINE
  8
0
 10
24.7246
 20
-35.749
 11
25.4681
 21
-34.7801
  0
LINE
  8
0
 10
25.4681
 20
-34.7801
 11
26.1244
 21
-33.75
  0
LINE
  8
0
 10
26.1244
 20
-33.75
 11
26.6883
 21
-32.6667
  0
LINE
  8
0
 10
26.6883
 20
-32.6667
 11
27.1557
 21
-31.5383
  0
LINE
  8
0
 10
27.1557
 20
-31.5383
 11
27.523
 21
-30.3735
  0
LINE
  8
0
 10
27.523
 20
-30.3735
 11
27.7873
 21
-29.1811
  0
LINE
  8
0
 10
27.7873
 20
-29.1811
 11
27.9467
 21
-27.9702
  0
LINE
  8
0
 10
27.9467
 20
-27.9702
 11
28
 21
-26.75
  0
LINE
  8
0
 10
28
 20
-26.75
 11
28
 21
25.75
  0
LINE
  8
0
 10
28
 20
25.75
 11
27.9467
 21
26.9702
  0
LINE
  8
0
 10
27.9467
 20
26.9702
 11
27.7873
 21
28.1811
  0
LINE
  8
0
 10
27.7873
 20
28.1811
 11
27.523
 21
29.3735
  0
LINE
  8
0
 10
27.523
 20
29.3735
 11
27.1557
 21
30.5383
  0
LINE
  8
0
 10
27.1557
 20
30.5383
 11
26.7416
 21
31.538
  0
LINE
  8
0
 10
26.7416
 20
31.538
 11
27.0459
 21
32.5031
  0
LINE
  8
0
 10
27.0459
 20
32.5031
 11
27.5746
 21
34.8879
  0
LINE
  8
0
 10
27.5746
 20
34.8879
 11
27.8934
 21
37.3096
  0
LINE
  8
0
 10
27.8934
 20
37.3096
 11
28
 21
39.75
  0
LINE
  8
0
 10
28
 20
39.75
 11
27.8934
 21
42.1904
  0
LINE
  8
0
 10
27.8934
 20
42.1904
 11
27.5746
 21
44.6121
  0
LINE
  8
0
 10
27.5746
 20
44.6121
 11
27.0459
 21
46.9969
  0
LINE
  8
0
 10
27.0459
 20
46.9969
 11
26.3114
 21
49.3266
  0
LINE
  8
0
 10
26.3114
 20
49.3266
 11
25.3766
 21
51.5833
  0
LINE
  8
0
 10
25.3766
 20
51.5833
 11
24.2487
 21
53.75
  0
LINE
  8
0
 10
24.2487
 20
53.75
 11
22.9362
 21
55.8101
  0
LINE
  8
0
 10
22.9362
 20
55.8101
 11
21.4492
 21
57.748
  0
LINE
  8
0
 10
21.4492
 20
57.748
 11
19.799
 21
59.549
  0
LINE
  8
0
 10
19.799
 20
59.549
 11
17.998
 21
61.1992
  0
LINE
  8
0
 10
17.998
 20
61.1992
 11
16.0601
 21
62.6862
  0
LINE
  8
0
 10
16.0601
 20
62.6862
 11
14
 21
63.9987
  0
LINE
  8
0
 10
14
 20
63.9987
 11
11.8333
 21
65.1266
  0
LINE
  8
0
 10
11.8333
 20
65.1266
 11
9.57655
 21
66.0614
  0
LINE
  8
0
 10
9.57655
 20
66.0614
 11
7.24693
 21
66.7959
  0
LINE
  8
0
 10
7.24693
 20
66.7959
 11
5.59999
 21
67.161
  0
LINE
  8
0
 10
5.59999
 20
67.161
 11
5.59999
 21
71.25
  0
LINE
  8
0
 10
5.59999
 20
71.25
 11
7.35001
 21
71.25
  0
LINE
  8
0
 10
7.35001
 20
71.25
 11
7.74443
 21
71.3067
  0
LINE
  8
0
 10
7.74443
 20
71.3067
 11
8.1069
 21
71.4722
  0
LINE
  8
0
 10
8.1069
 20
71.4722
 11
8.40805
 21
71.7332
  0
LINE
  8
0
 10
8.40805
 20
71.7332
 11
8.62349
 21
72.0684
  0
LINE
  8
0
 10
8.62349
 20
72.0684
 11
8.75
 21
72.65
  0
LINE
  8
0
 10
8.75
 20
72.65
 11
8.75
 21
73.35
  0
LINE
  8
0
 10
8.75
 20
73.35
 11
8.6933
 21
73.7444
  0
LINE
  8
0
 10
8.6933
 20
73.7444
 11
8.52776
 21
74.1069
  0
LINE
  8
0
 10
8.52776
 20
74.1069
 11
8.26682
 21
74.4081
  0
LINE
  8
0
 10
8.26682
 20
74.4081
 11
7.93158
 21
74.6235
  0
LINE
  8
0
 10
7.93158
 20
74.6235
 11
7.35001
 21
74.75
  0
LINE
  8
0
 10
7.35001
 20
74.75
 11
6.5275
 21
74.75
  0
LINE
  8
0
 10
6.5275
 20
74.75
 11
6.68372
 21
75.0461
  0
LINE
  8
0
 10
6.68372
 20
75.0461
 11
6.8287
 21
75.4184
  0
LINE
  8
0
 10
6.8287
 20
75.4184
 11
6.93028
 21
75.8049
  0
LINE
  8
0
 10
6.93028
 20
75.8049
 11
6.98717
 21
76.2005
  0
LINE
  8
0
 10
6.98717
 20
76.2005
 11
7
 21
76.5
  0
LINE
  8
0
 10
7
 20
76.5
 11
7
 21
83.5
  0
LINE
  8
0
 10
7
 20
83.5
 11
6.97719
 21
83.899
  0
LINE
  8
0
 10
6.97719
 20
83.899
 11
6.90904
 21
84.2927
  0
LINE
  8
0
 10
6.90904
 20
84.2927
 11
6.79645
 21
84.6762
  0
LINE
  8
0
 10
6.79645
 20
84.6762
 11
6.6409
 21
85.0443
  0
LINE
  8
0
 10
6.6409
 20
85.0443
 11
6.44438
 21
85.3922
  0
LINE
  8
0
 10
6.44438
 20
85.3922
 11
6.2095
 21
85.7155
  0
LINE
  8
0
 10
6.2095
 20
85.7155
 11
5.93929
 21
86.01
  0
LINE
  8
0
 10
5.93929
 20
86.01
 11
5.63727
 21
86.2717
  0
LINE
  8
0
 10
5.63727
 20
86.2717
 11
5.30739
 21
86.4972
  0
LINE
  8
0
 10
5.30739
 20
86.4972
 11
4.95395
 21
86.6837
  0
LINE
  8
0
 10
4.95395
 20
86.6837
 11
4.58156
 21
86.8287
  0
LINE
  8
0
 10
4.58156
 20
86.8287
 11
4.19507
 21
86.9303
  0
LINE
  8
0
 10
4.19507
 20
86.9303
 11
3.79951
 21
86.9872
  0
LINE
  8
0
 10
3.79951
 20
86.9872
 11
3.5
 21
87
  0
LINE
  8
0
 10
3.5
 20
87
 11
-3.5
 21
87
  0
LINE
  8
0
 10
-3.5
 20
87
 11
-3.89897
 21
86.9772
  0
LINE
  8
0
 10
-3.89897
 20
86.9772
 11
-4.29274
 21
86.909
  0
LINE
  8
0
 10
-4.29274
 20
86.909
 11
-4.67618
 21
86.7964
  0
LINE
  8
0
 10
-4.67618
 20
86.7964
 11
-5.04428
 21
86.6409
  0
LINE
  8
0
 10
-5.04428
 20
86.6409
 11
-5.39224
 21
86.4444
  0
LINE
  8
0
 10
-5.39224
 20
86.4444
 11
-5.71555
 21
86.2095
  0
LINE
  8
0
 10
-5.71555
 20
86.2095
 11
-6.00996
 21
85.9393
  0
LINE
  8
0
 10
-6.00996
 20
85.9393
 11
-6.27165
 21
85.6373
  0
LINE
  8
0
 10
-6.27165
 20
85.6373
 11
-6.49722
 21
85.3074
  0
LINE
  8
0
 10
-6.49722
 20
85.3074
 11
-6.68372
 21
84.9539
  0
LINE
  8
0
 10
-6.68372
 20
84.9539
 11
-6.8287
 21
84.5816
  0
LINE
  8
0
 10
-6.8287
 20
84.5816
 11
-6.93028
 21
84.1951
  0
LINE
  8
0
 10
-6.93028
 20
84.1951
 11
-6.98717
 21
83.7995
  0
LINE
  8
0
 10
-6.98717
 20
83.7995
 11
-7
 21
83.5
  0
LINE
  8
0
 10
-7
 20
83.5
 11
-7
 21
76.5
  0
LINE
  8
0
 10
-7
 20
76.5
 11
-6.97719
 21
76.101
  0
LINE
  8
0
 10
-6.97719
 20
76.101
 11
-6.90904
 21
75.7073
  0
LINE
  8
0
 10
-6.90904
 20
75.7073
 11
-6.79645
 21
75.3238
  0
LINE
  8
0
 10
-6.79645
 20
75.3238
 11
-6.6409
 21
74.9557
  0
LINE
  8
0
 10
-6.6409
 20
74.9557
 11
-6.52472
 21
74.75
  0
LINE
  8
0
 10
-6.52472
 20
74.75
 11
-7.35001
 21
74.75
  0
LINE
  8
0
 10
-7.35001
 20
74.75
 11
-7.74443
 21
74.6933
  0
LINE
  8
0
 10
-7.74443
 20
74.6933
 11
-8.1069
 21
74.5278
  0
LINE
  8
0
 10
-8.1069
 20
74.5278
 11
-8.40805
 21
74.2668
  0
LINE
  8
0
 10
-8.40805
 20
74.2668
 11
-8.62349
 21
73.9316
  0
LINE
  8
0
 10
-8.62349
 20
73.9316
 11
-8.75
 21
73.35
  0
LINE
  8
0
 10
-8.75
 20
73.35
 11
-8.75
 21
72.65
  0
LINE
  8
0
 10
-8.75
 20
72.65
 11
-8.6933
 21
72.2556
  0
LINE
  8
0
 10
-8.6933
 20
72.2556
 11
-8.52776
 21
71.8931
  0
LINE
  8
0
 10
-8.52776
 20
71.8931
 11
-8.26682
 21
71.5919
  0
LINE
  8
0
 10
-8.26682
 20
71.5919
 11
-7.93158
 21
71.3765
  0
LINE
  8
0
 10
-7.93158
 20
71.3765
 11
-7.35001
 21
71.25
  0
LINE
  8
0
 10
-7.35001
 20
71.25
 11
-5.59999
 21
71.25
  0
LINE
  8
0
 10
-5.59999
 20
71.25
 11
-5.59999
 21
67.161
  0
LINE
  8
0
 10
-5.59999
 20
67.161
 11
-7.24693
 21
66.7959
  0
LINE
  8
0
 10
-7.24693
 20
66.7959
 11
-9.57655
 21
66.0614
  0
LINE
  8
0
 10
-9.57655
 20
66.0614
 11
-11.8333
 21
65.1266
  0
LINE
  8
0
 10
-11.8333
 20
65.1266
 11
-14
 21
63.9987
  0
LINE
  8
0
 10
-14
 20
63.9987
 11
-16.0601
 21
62.6862
  0
LINE
  8
0
 10
-16.0601
 20
62.6862
 11
-17.998
 21
61.1992
  0
LINE
  8
0
 10
-17.998
 20
61.1992
 11
-19.799
 21
59.549
  0
LINE
  8
0
 10
-19.799
 20
59.549
 11
-21.4492
 21
57.748
  0
LINE
  8
0
 10
-21.4492
 20
57.748
 11
-22.9362
 21
55.8101
  0
LINE
  8
0
 10
-22.9362
 20
55.8101
 11
-24.2487
 21
53.75
  0
LINE
  8
0
 10
-24.2487
 20
53.75
 11
-25.3766
 21
51.5833
  0
LINE
  8
0
 10
-25.3766
 20
51.5833
 11
-26.3114
 21
49.3266
  0
LINE
  8
0
 10
-26.3114
 20
49.3266
 11
-27.0459
 21
46.9969
  0
LINE
  8
0
 10
-27.0459
 20
46.9969
 11
-27.5746
 21
44.6121
  0
LINE
  8
0
 10
-27.5746
 20
44.6121
 11
-27.8934
 21
42.1904
  0
LINE
  8
0
 10
-27.8934
 20
42.1904
 11
-28
 21
39.75
  0
LINE
  8
0
 10
-28
 20
39.75
 11
-27.8934
 21
37.3096
  0
LINE
  8
0
 10
-27.8934
 20
37.3096
 11
-27.5746
 21
34.8879
  0
LINE
  8
0
 10
-27.5746
 20
34.8879
 11
-27.0459
 21
32.5031
  0
LINE
  8
0
 10
-27.0459
 20
32.5031
 11
-26.7416
 21
31.538
  0
LINE
  8
0
 10
-26.7416
 20
31.538
 11
-27.1557
 21
30.5383
  0
LINE
  8
0
 10
-27.1557
 20
30.5383
 11
-27.523
 21
29.3735
  0
LINE
  8
0
 10
-27.523
 20
29.3735
 11
-27.7873
 21
28.1811
  0
LINE
  8
0
 10
-27.7873
 20
28.1811
 11
-27.9467
 21
26.9702
  0
LINE
  8
0
 10
-27.9467
 20
26.9702
 11
-28
 21
25.75
  0
LINE
  8
0
 10
-28
 20
25.75
 11
-28
 21
-26.75
  0
LINE
  8
0
 10
-28
 20
-26.75
 11
-27.9467
 21
-27.9702
  0
LINE
  8
0
 10
-27.9467
 20
-27.9702
 11
-27.7873
 21
-29.1811
  0
LINE
  8
0
 10
-27.7873
 20
-29.1811
 11
-27.523
 21
-30.3735
  0
LINE
  8
0
 10
-27.523
 20
-30.3735
 11
-27.1557
 21
-31.5383
  0
LINE
  8
0
 10
-27.1557
 20
-31.5383
 11
-26.6883
 21
-32.6667
  0
LINE
  8
0
 10
-26.6883
 20
-32.6667
 11
-26.1244
 21
-33.75
  0
LINE
  8
0
 10
-26.1244
 20
-33.75
 11
-25.4681
 21
-34.7801
  0
LINE
  8
0
 10
-25.4681
 20
-34.7801
 11
-24.7246
 21
-35.749
  0
LINE
  8
0
 10
-24.7246
 20
-35.749
 11
-23.8995
 21
-36.6495
  0
LINE
  8
0
 10
-23.8995
 20
-36.6495
 11
-22.999
 21
-37.4746
  0
LINE
  8
0
 10
-22.999
 20
-37.4746
 11
-22.0301
 21
-38.2181
  0
LINE
  8
0
 10
-22.0301
 20
-38.2181
 11
-21
 21
-38.8744
  0
LINE
  8
0
 10
-21
 20
-38.8744
 11
-19.9167
 21
-39.4383
  0
LINE
  8
0
 10
-19.9167
 20
-39.4383
 11
-18.7883
 21
-39.9057
  0
LINE
  8
0
 10
-18.7883
 20
-39.9057
 11
-17.6235
 21
-40.273
  0
LINE
  8
0
 10
-17.6235
 20
-40.273
 11
-16.4311
 21
-40.5373
  0
LINE
  8
0
 10
-16.4311
 20
-40.5373
 11
-15.2202
 21
-40.6967
  0
LINE
  8
0
 10
-15.2202
 20
-40.6967
 11
-14
 21
-40.75
  0
LINE
  8
0
 10
-14
 20
-40.75
 11
14
 21
-40.75
  0
LINE
  8
0
 10
14
 20
-40.75
 11
15.2202
 21
-40.6967
  0
LINE
  8
0
 10
8.67659
 20
-105.949
 11
9.84424
 21
-105.795
  0
LINE
  8
0
 10
9.84424
 20
-105.795
 11
10.994
 21
-105.54
  0
LINE
  8
0
 10
10.994
 20
-105.54
 11
12.1173
 21
-105.186
  0
LINE
  8
0
 10
12.1173
 20
-105.186
 11
13.2053
 21
-104.735
  0
LINE
  8
0
 10
13.2053
 20
-104.735
 11
14.25
 21
-104.191
  0
LINE
  8
0
 10
14.25
 20
-104.191
 11
15.2433
 21
-103.559
  0
LINE
  8
0
 10
15.2433
 20
-103.559
 11
16.1776
 21
-102.842
  0
LINE
  8
0
 10
16.1776
 20
-102.842
 11
17.0459
 21
-102.046
  0
LINE
  8
0
 10
17.0459
 20
-102.046
 11
17.8416
 21
-101.178
  0
LINE
  8
0
 10
17.8416
 20
-101.178
 11
18.5585
 21
-100.243
  0
LINE
  8
0
 10
18.5585
 20
-100.243
 11
19.1913
 21
-99.25
  0
LINE
  8
0
 10
19.1913
 20
-99.25
 11
19.7352
 21
-98.2053
  0
LINE
  8
0
 10
19.7352
 20
-98.2053
 11
20.1858
 21
-97.1173
  0
LINE
  8
0
 10
20.1858
 20
-97.1173
 11
20.54
 21
-95.994
  0
LINE
  8
0
 10
20.54
 20
-95.994
 11
20.7949
 21
-94.8442
  0
LINE
  8
0
 10
20.7949
 20
-94.8442
 11
20.9486
 21
-93.6766
  0
LINE
  8
0
 10
20.9486
 20
-93.6766
 11
21
 21
-92.5
  0
LINE
  8
0
 10
21
 20
-92.5
 11
20.9486
 21
-91.3234
  0
LINE
  8
0
 10
20.9486
 20
-91.3234
 11
20.7949
 21
-90.1558
  0
LINE
  8
0
 10
20.7949
 20
-90.1558
 11
20.54
 21
-89.006
  0
LINE
  8
0
 10
20.54
 20
-89.006
 11
20.1858
 21
-87.8827
  0
LINE
  8
0
 10
20.1858
 20
-87.8827
 11
19.7352
 21
-86.7947
  0
LINE
  8
0
 10
19.7352
 20
-86.7947
 11
19.1913
 21
-85.75
  0
LINE
  8
0
 10
19.1913
 20
-85.75
 11
18.5585
 21
-84.7567
  0
LINE
  8
0
 10
18.5585
 20
-84.7567
 11
17.8416
 21
-83.8224
  0
LINE
  8
0
 10
17.8416
 20
-83.8224
 11
17.0459
 21
-82.9541
  0
LINE
  8
0
 10
17.0459
 20
-82.9541
 11
16.1776
 21
-82.1584
  0
LINE
  8
0
 10
16.1776
 20
-82.1584
 11
15.2433
 21
-81.4415
  0
LINE
  8
0
 10
15.2433
 20
-81.4415
 11
14.25
 21
-80.8087
  0
LINE
  8
0
 10
14.25
 20
-80.8087
 11
13.2053
 21
-80.2648
  0
LINE
  8
0
 10
13.2053
 20
-80.2648
 11
12.1173
 21
-79.8142
  0
LINE
  8
0
 10
12.1173
 20
-79.8142
 11
10.994
 21
-79.46
  0
LINE
  8
0
 10
10.994
 20
-79.46
 11
9.84424
 21
-79.2051
  0
LINE
  8
0
 10
9.84424
 20
-79.2051
 11
8.67659
 21
-79.0514
  0
LINE
  8
0
 10
8.67659
 20
-79.0514
 11
7.36928
 21
-78.9943
  0
LINE
  8
0
 10
7.36928
 20
-78.9943
 11
7.23953
 21
-78.9772
  0
LINE
  8
0
 10
7.23953
 20
-78.9772
 11
7.11179
 21
-78.9489
  0
LINE
  8
0
 10
7.11179
 20
-78.9489
 11
6.98698
 21
-78.9095
  0
LINE
  8
0
 10
6.98698
 20
-78.9095
 11
6.86607
 21
-78.8595
  0
LINE
  8
0
 10
6.86607
 20
-78.8595
 11
6.75
 21
-78.799
  0
LINE
  8
0
 10
6.75
 20
-78.799
 11
6.63965
 21
-78.7287
  0
LINE
  8
0
 10
6.63965
 20
-78.7287
 11
6.53583
 21
-78.6491
  0
LINE
  8
0
 10
6.53583
 20
-78.6491
 11
6.43935
 21
-78.5607
  0
LINE
  8
0
 10
6.43935
 20
-78.5607
 11
6.35094
 21
-78.4642
  0
LINE
  8
0
 10
6.35094
 20
-78.4642
 11
6.27129
 21
-78.3604
  0
LINE
  8
0
 10
6.27129
 20
-78.3604
 11
6.20097
 21
-78.25
  0
LINE
  8
0
 10
6.20097
 20
-78.25
 11
6.14055
 21
-78.1339
  0
LINE
  8
0
 10
6.14055
 20
-78.1339
 11
6.09047
 21
-78.013
  0
LINE
  8
0
 10
6.09047
 20
-78.013
 11
6.05112
 21
-77.8882
  0
LINE
  8
0
 10
6.05112
 20
-77.8882
 11
6.0228
 21
-77.7605
  0
LINE
  8
0
 10
6.0228
 20
-77.7605
 11
6.00572
 21
-77.6307
  0
LINE
  8
0
 10
6.00572
 20
-77.6307
 11
6
 21
-77.5
  0
LINE
  8
0
 10
6
 20
-77.5
 11
6
 21
-74.5
  0
LINE
  8
0
 10
6
 20
-74.5
 11
-6
 21
-74.5
  0
LINE
  8
0
 10
-6
 20
-74.5
 11
-6
 21
-77.5
  0
LINE
  8
0
 10
-6
 20
-77.5
 11
-5.94862
 21
-78.6766
  0
LINE
  8
0
 10
-5.94862
 20
-78.6766
 11
-5.79489
 21
-79.8442
  0
LINE
  8
0
 10
-5.79489
 20
-79.8442
 11
-5.53999
 21
-80.994
  0
LINE
  8
0
 10
-5.53999
 20
-80.994
 11
-5.18584
 21
-82.1173
  0
LINE
  8
0
 10
-5.18584
 20
-82.1173
 11
-4.73515
 21
-83.2053
  0
LINE
  8
0
 10
-4.73515
 20
-83.2053
 11
-4.19133
 21
-84.25
  0
LINE
  8
0
 10
-4.19133
 20
-84.25
 11
-3.55855
 21
-85.2433
  0
LINE
  8
0
 10
-3.55855
 20
-85.2433
 11
-2.8416
 21
-86.1776
  0
LINE
  8
0
 10
-2.8416
 20
-86.1776
 11
-2.04593
 21
-87.0459
  0
LINE
  8
0
 10
-2.04593
 20
-87.0459
 11
-1.17763
 21
-87.8416
  0
LINE
  8
0
 10
-1.17763
 20
-87.8416
 11
-0.243271
 21
-88.5585
  0
LINE
  8
0
 10
-0.243271
 20
-88.5585
 11
0.75
 21
-89.1913
  0
LINE
  8
0
 10
0.75
 20
-89.1913
 11
1.79466
 21
-89.7352
  0
LINE
  8
0
 10
1.79466
 20
-89.7352
 11
2.88274
 21
-90.1858
  0
LINE
  8
0
 10
2.88274
 20
-90.1858
 11
4.00595
 21
-90.54
  0
LINE
  8
0
 10
4.00595
 20
-90.54
 11
5.15576
 21
-90.7949
  0
LINE
  8
0
 10
5.15576
 20
-90.7949
 11
6.32341
 21
-90.9486
  0
LINE
  8
0
 10
6.32341
 20
-90.9486
 11
7.63072
 21
-91.0057
  0
LINE
  8
0
 10
7.63072
 20
-91.0057
 11
7.76047
 21
-91.0228
  0
LINE
  8
0
 10
7.76047
 20
-91.0228
 11
7.88821
 21
-91.0511
  0
LINE
  8
0
 10
7.88821
 20
-91.0511
 11
8.01302
 21
-91.0905
  0
LINE
  8
0
 10
8.01302
 20
-91.0905
 11
8.13393
 21
-91.1405
  0
LINE
  8
0
 10
8.13393
 20
-91.1405
 11
8.25
 21
-91.201
  0
LINE
  8
0
 10
8.25
 20
-91.201
 11
8.36035
 21
-91.2713
  0
LINE
  8
0
 10
8.36035
 20
-91.2713
 11
8.46417
 21
-91.3509
  0
LINE
  8
0
 10
8.46417
 20
-91.3509
 11
8.56065
 21
-91.4393
  0
LINE
  8
0
 10
8.56065
 20
-91.4393
 11
8.64906
 21
-91.5358
  0
LINE
  8
0
 10
8.64906
 20
-91.5358
 11
8.72871
 21
-91.6396
  0
LINE
  8
0
 10
8.72871
 20
-91.6396
 11
8.79903
 21
-91.75
  0
LINE
  8
0
 10
8.79903
 20
-91.75
 11
8.85945
 21
-91.8661
  0
LINE
  8
0
 10
8.85945
 20
-91.8661
 11
8.90953
 21
-91.987
  0
LINE
  8
0
 10
8.90953
 20
-91.987
 11
8.94888
 21
-92.1118
  0
LINE
  8
0
 10
8.94888
 20
-92.1118
 11
8.9772
 21
-92.2395
  0
LINE
  8
0
 10
8.9772
 20
-92.2395
 11
8.99428
 21
-92.3693
  0
LINE
  8
0
 10
8.99428
 20
-92.3693
 11
9
 21
-92.5
  0
LINE
  8
0
 10
9
 20
-92.5
 11
8.99428
 21
-92.6307
  0
LINE
  8
0
 10
8.99428
 20
-92.6307
 11
8.9772
 21
-92.7605
  0
LINE
  8
0
 10
8.9772
 20
-92.7605
 11
8.94888
 21
-92.8882
  0
LINE
  8
0
 10
8.94888
 20
-92.8882
 11
8.90953
 21
-93.013
  0
LINE
  8
0
 10
8.90953
 20
-93.013
 11
8.85945
 21
-93.1339
  0
LINE
  8
0
 10
8.85945
 20
-93.1339
 11
8.79903
 21
-93.25
  0
LINE
  8
0
 10
8.79903
 20
-93.25
 11
8.72871
 21
-93.3604
  0
LINE
  8
0
 10
8.72871
 20
-93.3604
 11
8.64906
 21
-93.4642
  0
LINE
  8
0
 10
8.64906
 20
-93.4642
 11
8.56065
 21
-93.5607
  0
LINE
  8
0
 10
8.56065
 20
-93.5607
 11
8.46417
 21
-93.6491
  0
LINE
  8
0
 10
8.46417
 20
-93.6491
 11
8.36035
 21
-93.7287
  0
LINE
  8
0
 10
8.36035
 20
-93.7287
 11
8.25
 21
-93.799
  0
LINE
  8
0
 10
8.25
 20
-93.799
 11
8.13393
 21
-93.8595
  0
LINE
  8
0
 10
8.13393
 20
-93.8595
 11
8.01302
 21
-93.9095
  0
LINE
  8
0
 10
8.01302
 20
-93.9095
 11
7.88821
 21
-93.9489
  0
LINE
  8
0
 10
7.88821
 20
-93.9489
 11
7.76047
 21
-93.9772
  0
LINE
  8
0
 10
7.76047
 20
-93.9772
 11
7.63072
 21
-93.9943
  0
LINE
  8
0
 10
7.63072
 20
-93.9943
 11
7.5
 21
-94
  0
LINE
  8
0
 10
7.5
 20
-94
 11
0
 21
-94
  0
LINE
  8
0
 10
0
 20
-94
 11
-8.19263
 21
-93.6423
  0
LINE
  8
0
 10
-8.19263
 20
-93.6423
 11
-16.3229
 21
-92.5719
  0
LINE
  8
0
 10
-16.3229
 20
-92.5719
 11
-24.329
 21
-90.797
  0
LINE
  8
0
 10
-24.329
 20
-90.797
 11
-32.1499
 21
-88.3311
  0
LINE
  8
0
 10
-32.1499
 20
-88.3311
 11
-39.7261
 21
-85.1929
  0
LINE
  8
0
 10
-39.7261
 20
-85.1929
 11
-47
 21
-81.4064
  0
LINE
  8
0
 10
-47
 20
-81.4064
 11
-53.9162
 21
-77.0003
  0
LINE
  8
0
 10
-53.9162
 20
-77.0003
 11
-60.422
 21
-72.0082
  0
LINE
  8
0
 10
-60.422
 20
-72.0082
 11
-66.468
 21
-66.468
  0
LINE
  8
0
 10
-66.468
 20
-66.468
 11
-72.0082
 21
-60.422
  0
LINE
  8
0
 10
-72.0082
 20
-60.422
 11
-77.0003
 21
-53.9162
  0
LINE
  8
0
 10
-77.0003
 20
-53.9162
 11
-81.4064
 21
-47
  0
LINE
  8
0
 10
-81.4064
 20
-47
 11
-85.1929
 21
-39.7261
  0
LINE
  8
0
 10
-85.1929
 20
-39.7261
 11
-88.3311
 21
-32.1499
  0
LINE
  8
0
 10
-88.3311
 20
-32.1499
 11
-90.797
 21
-24.329
  0
LINE
  8
0
 10
-90.797
 20
-24.329
 11
-92.5719
 21
-16.3229
  0
LINE
  8
0
 10
-92.5719
 20
-16.3229
 11
-93.6423
 21
-8.19263
  0
LINE
  8
0
 10
-93.6423
 20
-8.19263
 11
-94
 21
0
  0
LINE
  8
0
 10
-94
 20
0
 11
-93.6423
 21
8.19263
  0
LINE
  8
0
 10
-93.6423
 20
8.19263
 11
-92.5719
 21
16.3229
  0
LINE
  8
0
 10
-92.5719
 20
16.3229
 11
-90.797
 21
24.329
  0
LINE
  8
0
 10
-90.797
 20
24.329
 11
-88.6752
 21
31.0586
  0
LINE
  8
0
 10
-88.6752
 20
31.0586
 11
-76.5266
 21
23.6574
  0
LINE
  8
0
 10
-76.5266
 20
23.6574
 11
-87.0911
 21
53.0579
  0
LINE
  8
0
 10
-87.0911
 20
53.0579
 11
-114.105
 21
37.365
  0
LINE
  8
0
 10
-114.105
 20
37.365
 11
-99.9429
 21
35.1901
  0
LINE
  8
0
 10
-99.9429
 20
35.1901
 11
-102.388
 21
27.4348
  0
LINE
  8
0
 10
-102.388
 20
27.4348
 11
-104.39
 21
18.4067
  0
LINE
  8
0
 10
-104.39
 20
18.4067
 11
-105.597
 21
9.23849
  0
LINE
  8
0
 10
-105.597
 20
9.23849
 11
-106
 21
0
  0
LINE
  8
0
 10
-106
 20
0
 11
-105.597
 21
-9.23849
  0
LINE
  8
0
 10
-105.597
 20
-9.23849
 11
-104.39
 21
-18.4067
  0
LINE
  8
0
 10
-104.39
 20
-18.4067
 11
-102.388
 21
-27.4348
  0
LINE
  8
0
 10
-102.388
 20
-27.4348
 11
-99.6074
 21
-36.2541
  0
LINE
  8
0
 10
-99.6074
 20
-36.2541
 11
-96.0686
 21
-44.7975
  0
LINE
  8
0
 10
-96.0686
 20
-44.7975
 11
-91.7987
 21
-53
  0
LINE
  8
0
 10
-91.7987
 20
-53
 11
-86.8301
 21
-60.7991
  0
LINE
  8
0
 10
-86.8301
 20
-60.7991
 11
-81.2007
 21
-68.1355
  0
LINE
  8
0
 10
-81.2007
 20
-68.1355
 11
-74.9533
 21
-74.9533
  0
LINE
  8
0
 10
-74.9533
 20
-74.9533
 11
-68.1355
 21
-81.2007
  0
LINE
  8
0
 10
-68.1355
 20
-81.2007
 11
-60.7991
 21
-86.8301
  0
LINE
  8
0
 10
-60.7991
 20
-86.8301
 11
-53
 21
-91.7987
  0
LINE
  8
0
 10
-53
 20
-91.7987
 11
-44.7975
 21
-96.0686
  0
LINE
  8
0
 10
-44.7975
 20
-96.0686
 11
-36.2541
 21
-99.6074
  0
LINE
  8
0
 10
-36.2541
 20
-99.6074
 11
-27.4348
 21
-102.388
  0
LINE
  8
0
 10
-27.4348
 20
-102.388
 11
-18.4067
 21
-104.39
  0
LINE
  8
0
 10
-18.4067
 20
-104.39
 11
-9.23849
 21
-105.597
  0
LINE
  8
0
 10
-9.23849
 20
-105.597
 11
0
 21
-106
  0
LINE
  8
0
 10
0
 20
-106
 11
7.5
 21
-106
  0
LINE
  8
0
 10
7.5
 20
-106
 11
8.67659
 21
-105.949
  0
LINE
  8
0
 10
45.7871
 20
-95.5535
 11
53
 21
-91.7987
  0
LINE
  8
0
 10
53
 20
-91.7987
 11
60.7991
 21
-86.8301
  0
LINE
  8
0
 10
60.7991
 20
-86.8301
 11
68.1355
 21
-81.2007
  0
LINE
  8
0
 10
68.1355
 20
-81.2007
 11
74.9533
 21
-74.9533
  0
LINE
  8
0
 10
74.9533
 20
-74.9533
 11
81.2007
 21
-68.1355
  0
LINE
  8
0
 10
81.2007
 20
-68.1355
 11
86.8301
 21
-60.7991
  0
LINE
  8
0
 10
86.8301
 20
-60.7991
 11
91.7987
 21
-53
  0
LINE
  8
0
 10
91.7987
 20
-53
 11
96.0686
 21
-44.7975
  0
LINE
  8
0
 10
96.0686
 20
-44.7975
 11
99.6074
 21
-36.2541
  0
LINE
  8
0
 10
99.6074
 20
-36.2541
 11
102.388
 21
-27.4348
  0
LINE
  8
0
 10
102.388
 20
-27.4348
 11
104.39
 21
-18.4067
  0
LINE
  8
0
 10
104.39
 20
-18.4067
 11
105.597
 21
-9.23849
  0
LINE
  8
0
 10
105.597
 20
-9.23849
 11
106
 21
0
  0
LINE
  8
0
 10
106
 20
0
 11
105.597
 21
9.23849
  0
LINE
  8
0
 10
105.597
 20
9.23849
 11
104.39
 21
18.4067
  0
LINE
  8
0
 10
104.39
 20
18.4067
 11
102.388
 21
27.4348
  0
LINE
  8
0
 10
102.388
 20
27.4348
 11
99.6074
 21
36.2541
  0
LINE
  8
0
 10
99.6074
 20
36.2541
 11
96.0686
 21
44.7975
  0
LINE
  8
0
 10
96.0686
 20
44.7975
 11
93.4219
 21
49.8819
  0
LINE
  8
0
 10
93.4219
 20
49.8819
 11
91.534
 21
42.0182
  0
LINE
  8
0
 10
91.534
 20
42.0182
 11
82.9237
 21
44.0853
  0
LINE
  8
0
 10
82.9237
 20
44.0853
 11
85.1929
 21
39.7261
  0
LINE
  8
0
 10
85.1929
 20
39.7261
 11
88.3311
 21
32.1499
  0
LINE
  8
0
 10
88.3311
 20
32.1499
 11
90.797
 21
24.329
  0
LINE
  8
0
 10
90.797
 20
24.329
 11
92.5719
 21
16.3229
  0
LINE
  8
0
 10
92.5719
 20
16.3229
 11
93.6423
 21
8.19263
  0
LINE
  8
0
 10
93.6423
 20
8.19263
 11
94
 21
0
  0
LINE
  8
0
 10
94
 20
0
 11
93.6423
 21
-8.19263
  0
LINE
  8
0
 10
93.6423
 20
-8.19263
 11
92.5719
 21
-16.3229
  0
LINE
  8
0
 10
92.5719
 20
-16.3229
 11
90.797
 21
-24.329
  0
LINE
  8
0
 10
90.797
 20
-24.329
 11
88.3311
 21
-32.1499
  0
LINE
  8
0
 10
88.3311
 20
-32.1499
 11
85.1929
 21
-39.7261
  0
LINE
  8
0
 10
85.1929
 20
-39.7261
 11
81.4064
 21
-47
  0
LINE
  8
0
 10
81.4064
 20
-47
 11
77.0003
 21
-53.9162
  0
LINE
  8
0
 10
77.0003
 20
-53.9162
 11
72.0082
 21
-60.422
  0
LINE
  8
0
 10
72.0082
 20
-60.422
 11
66.468
 21
-66.468
  0
LINE
  8
0
 10
66.468
 20
-66.468
 11
60.422
 21
-72.0082
  0
LINE
  8
0
 10
60.422
 20
-72.0082
 11
53.9162
 21
-77.0003
  0
LINE
  8
0
 10
53.9162
 20
-77.0003
 11
47
 21
-81.4064
  0
LINE
  8
0
 10
47
 20
-81.4064
 11
40.7411
 21
-84.6646
  0
LINE
  8
0
 10
40.7411
 20
-84.6646
 11
37.3842
 21
-70.8408
  0
LINE
  8
0
 10
37.3842
 20
-70.8408
 11
24.065
 21
-99.1003
  0
LINE
  8
0
 10
24.065
 20
-99.1003
 11
54.2631
 21
-107.105
  0
LINE
  8
0
 10
54.2631
 20
-107.105
 11
45.7871
 21
-95.5535
  0
LINE
  8
0
 10
12.6
 20
-64.6
 11
21
 21
-64.6
  0
LINE
  8
0
 10
21
 20
-64.6
 11
21
 21
-56.2
  0
LINE
  8
0
 10
21
 20
-56.2
 11
16.8
 21
-56.2
  0
LINE
  8
0
 10
16.8
 20
-56.2
 11
16.8
 21
-43.6
  0
LINE
  8
0
 10
16.8
 20
-43.6
 11
-16.8
 21
-43.6
  0
LINE
  8
0
 10
-16.8
 20
-43.6
 11
-16.8
 21
-56.2
  0
LINE
  8
0
 10
-16.8
 20
-56.2
 11
-21
 21
-56.2
  0
LINE
  8
0
 10
-21
 20
-56.2
 11
-21
 21
-64.6
  0
LINE
  8
0
 10
-21
 20
-64.6
 11
-12.6
 21
-64.6
  0
LINE
  8
0
 10
-12.6
 20
-64.6
 11
-4.2
 21
-73
  0
LINE
  8
0
 10
-4.2
 20
-73
 11
4.2
 21
-73
  0
LINE
  8
0
 10
4.2
 20
-73
 11
12.6
 21
-64.6
  0
ENDSEC
  0
SECTION
  2
OBJECTS
  0
DICTIONARY
  0
ENDSEC
  0
EOF
