<?xml version="1.0" encoding="UTF-8" standalone="no"?>
<svg
   xmlns:dc="http://purl.org/dc/elements/1.1/"
   xmlns:cc="http://creativecommons.org/ns#"
   xmlns:rdf="http://www.w3.org/1999/02/22-rdf-syntax-ns#"
   xmlns:svg="http://www.w3.org/2000/svg"
   xmlns="http://www.w3.org/2000/svg"
   xmlns:sodipodi="http://sodipodi.sourceforge.net/DTD/sodipodi-0.dtd"
   xmlns:inkscape="http://www.inkscape.org/namespaces/inkscape"
   width="16mm"
   height="16mm"
   viewBox="-8 -8 16 16"
   version="1.1"
   id="svg6"
   sodipodi:docname="24008BBA00_Autotrude Logo15x15.svg"
   inkscape:version="0.92.4 (5da689c313, 2019-01-14)">
  <metadata
     id="metadata12">
    <rdf:RDF>
      <cc:Work
         rdf:about="">
        <dc:format>image/svg+xml</dc:format>
        <dc:type
           rdf:resource="http://purl.org/dc/dcmitype/StillImage" />
      </cc:Work>
    </rdf:RDF>
  </metadata>
  <defs
     id="defs10" />
  <sodipodi:namedview
     pagecolor="#ffffff"
     bordercolor="#666666"
     borderopacity="1"
     objecttolerance="10"
     gridtolerance="10"
     guidetolerance="10"
     inkscape:pageopacity="0"
     inkscape:pageshadow="2"
     inkscape:window-width="2560"
     inkscape:window-height="1334"
     id="namedview8"
     showgrid="false"
     inkscape:zoom="3.9026042"
     inkscape:cx="37.795276"
     inkscape:cy="30.23622"
     inkscape:window-x="-11"
     inkscape:window-y="-11"
     inkscape:window-maximized="1"
     inkscape:current-layer="svg6" />
  <title
     id="title2">OpenSCAD Model</title>
  <path
     d="m -6.82611,5.72746 0.64997,-0.81041 0.64387,0.71509 1.25495,0.91178 1.41709,0.63093 1.517309,0.32251 H 0.208281 L 1.72559,7.17485 3.14268,6.54392 4.39763,5.63214 5.43559,4.47938 5.6847,4.04789 5.18359,4.19633 4.99735,3.56762 4.75601,3.98564 3.83556,5.0079 2.72268,5.81646 1.46601,6.37596 0.120477,6.66196 H -1.255117 L -2.60065,6.37596 -3.85732,5.81646 -4.9702,5.0079 -5.52551,4.39117 -4.67991,3.92918 -6.83197,3.5406 Z m 5.07504,-8.44053 -0.19485,0.06331 -0.17743,0.10243 -0.15225,0.13709 -0.12043,0.16575 -0.08333,0.18716 -0.04796,0.30284 v 3.675 l 0.02142,0.20375 0.06331,0.19485 0.00934,0.01619 -0.05124,0.1577 -0.04283,0.40751 0.04283,0.40751 0.12662,0.38969 0.20488,0.35486 0.27417,0.3045 0.3315,0.24085 0.374327,0.16666 L -0.959319,4.81 V 5.10551 H -1.08182 l -0.098,0.098 v 0.049 l 0.098,0.098 h 0.064597 L -1.03518,5.37123 -1.05732,5.47301 v 0.49 l 0.038893,0.13246 0.104331,0.0904 0.101776,0.02214 h 0.49 L -0.189863,6.16912 -0.09946,6.06479 -0.07732,5.96301 v -0.49 l -0.03597,-0.1225 h 0.06047 l 0.098,-0.098 v -0.049 l -0.098,-0.098 H -0.175321 V 4.81 L 0.038353,4.76458 0.41268,4.59792 0.74418,4.35707 1.01835,4.05257 1.22323,3.69771 1.34985,3.30802 1.39268,2.90051 1.34985,2.493 1.29703,2.33045 1.34472,2.22335 1.39268,1.92051 v -3.675 L 1.37126,-1.95824 1.30795,-2.15309 1.20552,-2.33052 1.06843,-2.48277 0.90268,-2.6032 0.71552,-2.68653 0.41268,-2.73449 h -1.96 z m 0.65875,-4.58374 h -0.098779 l -0.193242,0.04107 -0.180479,0.08036 -0.15983,0.11612 -0.13219,0.14681 -0.09878,0.17109 -0.06105,0.18789 -0.02065,0.19648 0.02065,0.19648 0.06105,0.18789 0.09878,0.17109 0.13219,0.14681 0.15983,0.11612 0.180479,0.08036 0.193242,0.04107 h 0.098779 v 0.00576 h 0.010975 l 0.021471,0.00456 0.020054,0.00893 0.017758,0.0129 0.014688,0.01631 0.010976,0.01901 0.006783,0.02088 0.002295,0.02183 v 0.21 h 0.84 v -0.21 L -0.167971,-5.50347 -0.22902,-5.69136 -0.327799,-5.86245 -0.459993,-6.00926 -0.61982,-6.12538 -0.800299,-6.20574 -0.993541,-6.24681 H -1.09232 v -0.00576 h -0.010975 l -0.021471,-0.00456 -0.020054,-0.00893 -0.017758,-0.0129 -0.014688,-0.01631 -0.010976,-0.01901 -0.00678,-0.02088 -0.00229,-0.02183 0.00229,-0.02183 0.00678,-0.02088 0.010976,-0.01901 0.014688,-0.01631 0.017758,-0.0129 0.020054,-0.00893 0.021471,-0.00456 h 0.010975 v -5.8e-4 h 0.525 v 0.03605 h 0.687797 l 1.345533,0.286 1.25667,0.5595 1.11288,0.80856 0.92045,1.02226 0.6878,1.1913 0.42508,1.30827 L 6.01268,0.11801 5.86889,1.48607 5.61244,2.27535 4.78954,1.77403 5.52905,3.83207 7.42,2.73356 6.39318,2.57587 6.69053,1.66071 6.85268,0.11801 6.69053,-1.42469 6.21119,-2.89998 5.43559,-4.24336 4.39763,-5.39612 3.14268,-6.3079 1.72559,-6.93883 0.208281,-7.26134 H -0.56732 v -0.04065 h -0.525 z m -2.65906,0.75475 -0.52594,0.23416 -1.25495,0.91178 -1.03796,1.15276 -0.7756,1.34338 -0.47934,1.47529 -0.16215,1.5427 0.16215,1.5427 0.47934,1.47529 0.24912,0.43148 0.12201,-0.5082 0.63759,0.15307 -0.24134,-0.41801 -0.42508,-1.30827 -0.14379,-1.36806 0.14379,-1.36806 0.42508,-1.30827 0.6878,-1.1913 0.92045,-1.02226 1.11288,-0.80856 0.44536,-0.19828 0.22775,0.93787 0.93234,-1.97816 -2.11387,-0.56034 z m 2.302061,2.13807 H -2.03732 v 0.588 h 0.294 v 0.882 h 2.352 v -0.882 h 0.294 v -0.588 H 0.314679 l -0.587999,-0.588 h -0.588 z"
     id="path4"
     inkscape:connector-curvature="0"
     style="fill:#d3d3d3;stroke:#000000;stroke-width:0.5" />
</svg>
