<?xml version="1.0" standalone="no"?>
<!DOCTYPE svg PUBLIC "-//W3C//DTD SVG 1.1//EN" "http://www.w3.org/Graphics/SVG/1.1/DTD/svg11.dtd">
<svg width="45mm" height="44mm" viewBox="-23 -22 45 44" xmlns="http://www.w3.org/2000/svg" version="1.1">
<title>OpenSCAD Model</title>
<path d="
M 17.8823,-16.027 L 16.0252,-13.7116 L 14.1856,-15.7547 L 10.6,-18.3597 L 6.55116,-20.1624 L 2.216,-21.0839
 L -2.216,-21.0839 L -6.55116,-20.1624 L -10.6,-18.3597 L -14.1856,-15.7547 L -17.1512,-12.461 L -17.8629,-11.2282
 L -16.4312,-11.6523 L -15.8991,-9.85602 L -15.2095,-11.0504 L -12.5797,-13.9711 L -9.4,-16.2813 L -5.80952,-17.8799
 L -1.96513,-18.697 L 1.96513,-18.697 L 5.80952,-17.8799 L 9.4,-16.2813 L 12.5797,-13.9711 L 14.1663,-12.209
 L 11.7502,-10.8891 L 17.899,-9.77882 z
M 3.38215,8.08881 L 3.93886,7.90793 L 4.4458,7.61525 L 4.8808,7.22357 L 5.22487,6.75 L 5.46296,6.21525
 L 5.6,5.35 L 5.6,-5.15 L 5.53881,-5.73215 L 5.35793,-6.28886 L 5.33122,-6.33512 L 5.47762,-6.7857
 L 5.6,-7.95 L 5.47762,-9.1143 L 5.11585,-10.2277 L 4.53049,-11.2416 L 3.74713,-12.1116 L 2.8,-12.7997
 L 1.73049,-13.2759 L 1.12,-13.4057 L 1.12,-14.25 L 1.47,-14.25 L 1.75,-14.53 L 1.75,-14.67
 L 1.47,-14.95 L 1.28544,-14.95 L 1.33674,-15.0092 L 1.4,-15.3 L 1.4,-16.7 L 1.28888,-17.0784
 L 0.99079,-17.3367 L 0.7,-17.4 L -0.7,-17.4 L -1.07845,-17.2889 L -1.33674,-16.9908 L -1.4,-16.7
 L -1.4,-15.3 L -1.29723,-14.95 L -1.47,-14.95 L -1.75,-14.67 L -1.75,-14.53 L -1.47,-14.25
 L -1.12,-14.25 L -1.12,-13.4057 L -1.73049,-13.2759 L -2.8,-12.7997 L -3.74713,-12.1116 L -4.53049,-11.2416
 L -5.11585,-10.2277 L -5.47762,-9.1143 L -5.6,-7.95 L -5.47762,-6.7857 L -5.32672,-6.32125 L -5.46296,-6.01525
 L -5.6,-5.15 L -5.6,5.35 L -5.53881,5.93215 L -5.35793,6.48886 L -5.06525,6.9958 L -4.67357,7.4308
 L -4.2,7.77487 L -3.66525,8.01296 L -2.8,8.15 L 2.8,8.15 z
M 1.5,21.1852 L 1.78223,21.1852 L 2.33434,21.0678 L 2.85,20.8383 L 3.30665,20.5065 L 3.68434,20.087
 L 3.96657,19.5982 L 4.141,19.0614 L 4.2,18.5 L 4.141,17.9386 L 3.96657,17.4018 L 3.68434,16.913
 L 3.30665,16.4935 L 2.85,16.1617 L 2.33434,15.9322 L 1.78223,15.8148 L 1.5,15.8148 L 1.5,15.7984
 L 1.46864,15.7984 L 1.4073,15.7853 L 1.35,15.7598 L 1.29926,15.7229 L 1.2573,15.6763 L 1.22594,15.622
 L 1.20656,15.5624 L 1.2,15.5 L 1.2,14.9 L -1.2,14.9 L -1.2,15.5 L -1.141,16.0614
 L -0.966571,16.5982 L -0.684344,17.087 L -0.30665,17.5065 L 0.15,17.8383 L 0.665656,18.0678 L 1.21777,18.1852
 L 1.5,18.1852 L 1.5,18.2016 L 1.53136,18.2016 L 1.5927,18.2147 L 1.65,18.2402 L 1.70074,18.2771
 L 1.7427,18.3237 L 1.77406,18.378 L 1.79344,18.4376 L 1.8,18.5 L 1.79344,18.5624 L 1.77406,18.622
 L 1.7427,18.6763 L 1.70074,18.7229 L 1.65,18.7598 L 1.5927,18.7853 L 1.53136,18.7984 L 1.5,18.7984
 L 1.5,18.8 L 0,18.8 L 0,18.697 L -1.96513,18.697 L -5.80952,17.8799 L -9.4,16.2813
 L -12.5797,13.9711 L -15.2095,11.0504 L -17.1747,7.64665 L -18.3892,3.90874 L -18.8,-0 L -18.3892,-3.90874
 L -17.6564,-6.16383 L -15.3053,-4.73148 L -17.4182,-10.6116 L -22.8209,-7.47299 L -19.8872,-7.02245 L -20.7367,-4.40773
 L -21.2,-0 L -20.7367,4.40773 L -19.3672,8.62281 L -17.1512,12.461 L -14.1856,15.7547 L -10.6,18.3597
 L -6.55116,20.1624 L -2.216,21.0839 L 0,21.0839 L 0,21.2 L 1.5,21.2 z
M 9.09732,19.0288 L 10.6,18.3597 L 14.1856,15.7547 L 17.1512,12.461 L 19.3672,8.62281 L 20.7367,4.40773
 L 21.2,-0 L 20.7367,-4.40773 L 19.3672,-8.62281 L 18.6554,-9.85564 L 18.3068,-8.40363 L 16.4851,-8.84099
 L 17.1747,-7.64665 L 18.3892,-3.90874 L 18.8,-0 L 18.3892,3.90874 L 17.1747,7.64665 L 15.2095,11.0504
 L 12.5797,13.9711 L 9.4,16.2813 L 8.12755,16.8478 L 7.47684,14.1682 L 4.81301,19.8201 L 10.8526,21.421
 z
M 2.52,12.92 L 4.2,12.92 L 4.2,11.24 L 3.36,11.24 L 3.36,8.72 L -3.36,8.72
 L -3.36,11.24 L -4.2,11.24 L -4.2,12.92 L -2.52,12.92 L -0.839999,14.6 L 0.839999,14.6
 z
" stroke="black" fill="lightgray" stroke-width="0.5"/>
</svg>
