<?xml version="1.0" standalone="no"?>
<!DOCTYPE svg PUBLIC "-//W3C//DTD SVG 1.1//EN" "http://www.w3.org/Graphics/SVG/1.1/DTD/svg11.dtd">
<svg width="23mm" height="22mm" viewBox="-12 -11 23 22" xmlns="http://www.w3.org/2000/svg" version="1.1">
<title>OpenSCAD Model</title>
<path d="
M 8.94113,-8.0135 L 8.0126,-6.85578 L 7.09278,-7.87733 L 5.3,-9.17987 L 3.27558,-10.0812 L 1.108,-10.5419
 L -1.108,-10.5419 L -3.27558,-10.0812 L -5.3,-9.17987 L -7.09278,-7.87733 L -8.57558,-6.23052 L -8.93146,-5.61411
 L -8.21558,-5.82617 L -7.94953,-4.92801 L -7.60476,-5.52518 L -6.28983,-6.98556 L -4.7,-8.14064 L -2.90476,-8.93993
 L -0.982567,-9.3485 L 0.982567,-9.3485 L 2.90476,-8.93993 L 4.7,-8.14064 L 6.28983,-6.98556 L 7.08313,-6.10451
 L 5.87512,-5.44453 L 8.94951,-4.88941 z
M 1.69108,4.04441 L 1.96943,3.95396 L 2.2229,3.80762 L 2.4404,3.61178 L 2.61244,3.375 L 2.73148,3.10762
 L 2.8,2.675 L 2.8,-2.575 L 2.76941,-2.86608 L 2.67896,-3.14443 L 2.66561,-3.16756 L 2.73881,-3.39285
 L 2.8,-3.975 L 2.73881,-4.55715 L 2.55793,-5.11386 L 2.26525,-5.6208 L 1.87357,-6.0558 L 1.4,-6.39987
 L 0.865247,-6.63796 L 0.559999,-6.70284 L 0.559999,-7.125 L 0.735001,-7.125 L 0.875,-7.265 L 0.875,-7.335
 L 0.735001,-7.475 L 0.642719,-7.475 L 0.668372,-7.50461 L 0.7,-7.65 L 0.7,-8.35 L 0.644438,-8.53922
 L 0.495395,-8.66837 L 0.35,-8.7 L -0.35,-8.7 L -0.539224,-8.64444 L -0.668372,-8.49539 L -0.7,-8.35
 L -0.7,-7.65 L -0.648615,-7.475 L -0.735001,-7.475 L -0.875,-7.335 L -0.875,-7.265 L -0.735001,-7.125
 L -0.559999,-7.125 L -0.559999,-6.70284 L -0.865247,-6.63796 L -1.4,-6.39987 L -1.87357,-6.0558 L -2.26525,-5.6208
 L -2.55793,-5.11386 L -2.73881,-4.55715 L -2.8,-3.975 L -2.73881,-3.39285 L -2.66336,-3.16062 L -2.73148,-3.00762
 L -2.8,-2.575 L -2.8,2.675 L -2.76941,2.96608 L -2.67896,3.24443 L -2.53262,3.4979 L -2.33678,3.7154
 L -2.1,3.88744 L -1.83262,4.00648 L -1.4,4.075 L 1.4,4.075 z
M 0.75,10.5926 L 0.891113,10.5926 L 1.16717,10.5339 L 1.425,10.4191 L 1.65332,10.2532 L 1.84217,10.0435
 L 1.98329,9.79909 L 2.0705,9.53068 L 2.1,9.25 L 2.0705,8.96932 L 1.98329,8.70091 L 1.84217,8.45649
 L 1.65332,8.24676 L 1.425,8.08087 L 1.16717,7.96608 L 0.891113,7.9074 L 0.75,7.9074 L 0.75,7.89918
 L 0.734322,7.89918 L 0.703648,7.89266 L 0.675,7.8799 L 0.649631,7.86147 L 0.628648,7.83817 L 0.612968,7.81101
 L 0.603279,7.78119 L 0.6,7.75 L 0.6,7.45 L -0.6,7.45 L -0.6,7.75 L -0.570499,8.03068
 L -0.483286,8.29909 L -0.342172,8.54351 L -0.153325,8.75324 L 0.075,8.91913 L 0.332828,9.03392 L 0.608887,9.0926
 L 0.75,9.0926 L 0.75,9.10082 L 0.765678,9.10082 L 0.796352,9.10734 L 0.825,9.1201 L 0.850369,9.13853
 L 0.871352,9.16183 L 0.887032,9.18899 L 0.896721,9.21881 L 0.9,9.25 L 0.896721,9.28119 L 0.887032,9.31101
 L 0.871352,9.33817 L 0.850369,9.36147 L 0.825,9.3799 L 0.796352,9.39266 L 0.765678,9.39918 L 0.75,9.39918
 L 0.75,9.4 L 0,9.4 L 0,9.3485 L -0.982567,9.3485 L -2.90476,8.93993 L -4.7,8.14064
 L -6.28983,6.98556 L -7.60476,5.52518 L -8.58733,3.82332 L -9.19459,1.95437 L -9.4,-0 L -9.19459,-1.95437
 L -8.82822,-3.08192 L -7.65266,-2.36574 L -8.70911,-5.30579 L -11.4105,-3.7365 L -9.94358,-3.51122 L -10.3684,-2.20386
 L -10.6,-0 L -10.3684,2.20386 L -9.68358,4.31141 L -8.57558,6.23052 L -7.09278,7.87733 L -5.3,9.17987
 L -3.27558,10.0812 L -1.108,10.5419 L 0,10.5419 L 0,10.6 L 0.75,10.6 z
M 4.54866,9.51439 L 5.3,9.17987 L 7.09278,7.87733 L 8.57558,6.23052 L 9.68358,4.31141 L 10.3684,2.20386
 L 10.6,-0 L 10.3684,-2.20386 L 9.68358,-4.31141 L 9.3277,-4.92782 L 9.1534,-4.20182 L 8.24255,-4.42049
 L 8.58733,-3.82332 L 9.19459,-1.95437 L 9.4,-0 L 9.19459,1.95437 L 8.58733,3.82332 L 7.60476,5.52518
 L 6.28983,6.98556 L 4.7,8.14064 L 4.06378,8.4239 L 3.73842,7.08408 L 2.4065,9.91003 L 5.42631,10.7105
 z
M 1.26,6.46 L 2.1,6.46 L 2.1,5.62 L 1.68,5.62 L 1.68,4.36 L -1.68,4.36
 L -1.68,5.62 L -2.1,5.62 L -2.1,6.46 L -1.26,6.46 L -0.42,7.3 L 0.42,7.3
 z
" stroke="black" fill="lightgray" stroke-width="0.5"/>
</svg>
