<?xml version="1.0" standalone="no"?>
<!DOCTYPE svg PUBLIC "-//W3C//DTD SVG 1.1//EN" "http://www.w3.org/Graphics/SVG/1.1/DTD/svg11.dtd">
<svg width="16mm" height="16mm" viewBox="-8 -8 16 16" xmlns="http://www.w3.org/2000/svg" version="1.1">
<title>OpenSCAD Model</title>
<path d="
M 6.25879,-5.60945 L 5.60882,-4.79904 L 4.96495,-5.51413 L 3.71,-6.42591 L 2.29291,-7.05684 L 0.775601,-7.37935
 L -0.775601,-7.37935 L -2.29291,-7.05684 L -3.71,-6.42591 L -4.96495,-5.51413 L -6.00291,-4.36137 L -6.25202,-3.92988
 L -5.75091,-4.07832 L -5.56467,-3.44961 L -5.32333,-3.86763 L -4.40288,-4.88989 L -3.29,-5.69845 L -2.03333,-6.25795
 L -0.687797,-6.54395 L 0.687797,-6.54395 L 2.03333,-6.25795 L 3.29,-5.69845 L 4.40288,-4.88989 L 4.95819,-4.27316
 L 4.11259,-3.81117 L 6.26465,-3.42259 z
M 1.18375,2.83108 L 1.3786,2.76777 L 1.55603,2.66534 L 1.70828,2.52825 L 1.82871,2.3625 L 1.91204,2.17534
 L 1.96,1.8725 L 1.96,-1.8025 L 1.93858,-2.00625 L 1.87527,-2.2011 L 1.86593,-2.21729 L 1.91717,-2.37499
 L 1.96,-2.7825 L 1.91717,-3.19001 L 1.79055,-3.5797 L 1.58567,-3.93456 L 1.3115,-4.23906 L 0.98,-4.47991
 L 0.605673,-4.64657 L 0.391999,-4.69199 L 0.391999,-4.9875 L 0.5145,-4.9875 L 0.6125,-5.0855 L 0.6125,-5.1345
 L 0.5145,-5.2325 L 0.449903,-5.2325 L 0.46786,-5.25322 L 0.49,-5.355 L 0.49,-5.845 L 0.451107,-5.97746
 L 0.346776,-6.06786 L 0.245,-6.09 L -0.245,-6.09 L -0.377457,-6.05111 L -0.46786,-5.94678 L -0.49,-5.845
 L -0.49,-5.355 L -0.45403,-5.2325 L -0.5145,-5.2325 L -0.6125,-5.1345 L -0.6125,-5.0855 L -0.5145,-4.9875
 L -0.391999,-4.9875 L -0.391999,-4.69199 L -0.605673,-4.64657 L -0.98,-4.47991 L -1.3115,-4.23906 L -1.58567,-3.93456
 L -1.79055,-3.5797 L -1.91717,-3.19001 L -1.96,-2.7825 L -1.91717,-2.37499 L -1.86435,-2.21244 L -1.91204,-2.10534
 L -1.96,-1.8025 L -1.96,1.8725 L -1.93858,2.07625 L -1.87527,2.2711 L -1.77284,2.44853 L -1.63575,2.60078
 L -1.47,2.72121 L -1.28284,2.80454 L -0.98,2.8525 L 0.98,2.8525 z
M 0.525,7.41482 L 0.623779,7.41482 L 0.817021,7.37375 L 0.9975,7.29339 L 1.15733,7.17727 L 1.28952,7.03046
 L 1.3883,6.85937 L 1.44935,6.67148 L 1.47,6.475 L 1.44935,6.27852 L 1.3883,6.09063 L 1.28952,5.91954
 L 1.15733,5.77273 L 0.9975,5.65661 L 0.817021,5.57625 L 0.623779,5.53518 L 0.525,5.53518 L 0.525,5.52942
 L 0.514025,5.52942 L 0.492554,5.52486 L 0.4725,5.51593 L 0.454742,5.50303 L 0.440054,5.48672 L 0.429078,5.46771
 L 0.422295,5.44683 L 0.42,5.425 L 0.42,5.215 L -0.42,5.215 L -0.42,5.425 L -0.399349,5.62148
 L -0.3383,5.80937 L -0.239521,5.98046 L -0.107327,6.12727 L 0.0525,6.24339 L 0.232979,6.32375 L 0.426221,6.36482
 L 0.525,6.36482 L 0.525,6.37058 L 0.535975,6.37058 L 0.557446,6.37514 L 0.5775,6.38407 L 0.595258,6.39697
 L 0.609946,6.41328 L 0.620922,6.43229 L 0.627705,6.45317 L 0.63,6.475 L 0.627705,6.49683 L 0.620922,6.51771
 L 0.609946,6.53672 L 0.595258,6.55303 L 0.5775,6.56593 L 0.557446,6.57486 L 0.535975,6.57942 L 0.525,6.57942
 L 0.525,6.58 L 0,6.58 L 0,6.54395 L -0.687797,6.54395 L -2.03333,6.25795 L -3.29,5.69845
 L -4.40288,4.88989 L -5.32333,3.86763 L -6.01113,2.67633 L -6.43621,1.36806 L -6.58,-0 L -6.43621,-1.36806
 L -6.17976,-2.15734 L -5.35686,-1.65602 L -6.09637,-3.71406 L -7.98732,-2.61555 L -6.9605,-2.45786 L -7.25785,-1.5427
 L -7.42,-0 L -7.25785,1.5427 L -6.77851,3.01799 L -6.00291,4.36137 L -4.96495,5.51413 L -3.71,6.42591
 L -2.29291,7.05684 L -0.775601,7.37935 L 0,7.37935 L 0,7.42 L 0.525,7.42 z
M 3.18406,6.66007 L 3.71,6.42591 L 4.96495,5.51413 L 6.00291,4.36137 L 6.77851,3.01799 L 7.25785,1.5427
 L 7.42,-0 L 7.25785,-1.5427 L 6.77851,-3.01799 L 6.52939,-3.44947 L 6.40738,-2.94127 L 5.76979,-3.09434
 L 6.01113,-2.67633 L 6.43621,-1.36806 L 6.58,-0 L 6.43621,1.36806 L 6.01113,2.67633 L 5.32333,3.86763
 L 4.40288,4.88989 L 3.29,5.69845 L 2.84464,5.89673 L 2.61689,4.95886 L 1.68455,6.93702 L 3.79842,7.49736
 z
M 0.881999,4.522 L 1.47,4.522 L 1.47,3.934 L 1.176,3.934 L 1.176,3.052 L -1.176,3.052
 L -1.176,3.934 L -1.47,3.934 L -1.47,4.522 L -0.881999,4.522 L -0.294,5.11 L 0.294,5.11
 z
" stroke="black" fill="lightgray" stroke-width="0.5"/>
</svg>
