<?xml version="1.0" standalone="no"?>
<!DOCTYPE svg PUBLIC "-//W3C//DTD SVG 1.1//EN" "http://www.w3.org/Graphics/SVG/1.1/DTD/svg11.dtd">
<svg width="221mm" height="214mm" viewBox="-115 -106 221 214" xmlns="http://www.w3.org/2000/svg" version="1.1">
<title>OpenSCAD Model</title>
<path d="
M 89.4113,-80.135 L 80.126,-68.5578 L 70.9278,-78.7733 L 53,-91.7987 L 32.7558,-100.812 L 11.08,-105.419
 L -11.08,-105.419 L -32.7558,-100.812 L -53,-91.7987 L -70.9278,-78.7733 L -85.7558,-62.3052 L -89.3146,-56.1411
 L -82.1558,-58.2617 L -79.4953,-49.2801 L -76.0476,-55.2518 L -62.8983,-69.8556 L -47,-81.4064 L -29.0476,-89.3993
 L -9.82567,-93.485 L 9.82567,-93.485 L 29.0476,-89.3993 L 47,-81.4064 L 62.8983,-69.8556 L 70.8313,-61.0451
 L 58.7512,-54.4453 L 89.4951,-48.8941 z
M 16.9108,40.4441 L 19.6943,39.5396 L 22.229,38.0762 L 24.404,36.1178 L 26.1244,33.75 L 27.3148,31.0762
 L 28,26.75 L 28,-25.75 L 27.6941,-28.6608 L 26.7896,-31.4443 L 26.6561,-31.6756 L 27.3881,-33.9285
 L 28,-39.75 L 27.3881,-45.5715 L 25.5793,-51.1386 L 22.6525,-56.208 L 18.7357,-60.558 L 14,-63.9987
 L 8.65247,-66.3796 L 5.59999,-67.0284 L 5.59999,-71.25 L 7.35001,-71.25 L 8.75,-72.65 L 8.75,-73.35
 L 7.35001,-74.75 L 6.42719,-74.75 L 6.68372,-75.0461 L 7,-76.5 L 7,-83.5 L 6.44438,-85.3922
 L 4.95395,-86.6837 L 3.5,-87 L -3.5,-87 L -5.39224,-86.4444 L -6.68372,-84.9539 L -7,-83.5
 L -7,-76.5 L -6.48615,-74.75 L -7.35001,-74.75 L -8.75,-73.35 L -8.75,-72.65 L -7.35001,-71.25
 L -5.59999,-71.25 L -5.59999,-67.0284 L -8.65247,-66.3796 L -14,-63.9987 L -18.7357,-60.558 L -22.6525,-56.208
 L -25.5793,-51.1386 L -27.3881,-45.5715 L -28,-39.75 L -27.3881,-33.9285 L -26.6336,-31.6062 L -27.3148,-30.0762
 L -28,-25.75 L -28,26.75 L -27.6941,29.6608 L -26.7896,32.4443 L -25.3262,34.979 L -23.3678,37.154
 L -21,38.8744 L -18.3262,40.0648 L -14,40.75 L 14,40.75 z
M 7.5,105.926 L 8.91113,105.926 L 11.6717,105.339 L 14.25,104.191 L 16.5332,102.532 L 18.4217,100.435
 L 19.8329,97.9909 L 20.705,95.3068 L 21,92.5 L 20.705,89.6932 L 19.8329,87.0091 L 18.4217,84.5649
 L 16.5332,82.4676 L 14.25,80.8087 L 11.6717,79.6608 L 8.91113,79.074 L 7.5,79.074 L 7.5,78.9918
 L 7.34322,78.9918 L 7.03648,78.9266 L 6.75,78.799 L 6.49631,78.6147 L 6.28648,78.3817 L 6.12968,78.1101
 L 6.03279,77.8119 L 6,77.5 L 6,74.5 L -6,74.5 L -6,77.5 L -5.70499,80.3068
 L -4.83286,82.9909 L -3.42172,85.4351 L -1.53325,87.5324 L 0.75,89.1913 L 3.32828,90.3392 L 6.08887,90.926
 L 7.5,90.926 L 7.5,91.0082 L 7.65678,91.0082 L 7.96352,91.0734 L 8.25,91.201 L 8.50369,91.3853
 L 8.71352,91.6183 L 8.87032,91.8899 L 8.96721,92.1881 L 9,92.5 L 8.96721,92.8119 L 8.87032,93.1101
 L 8.71352,93.3817 L 8.50369,93.6147 L 8.25,93.799 L 7.96352,93.9266 L 7.65678,93.9918 L 7.5,93.9918
 L 7.5,94 L 0,94 L 0,93.485 L -9.82567,93.485 L -29.0476,89.3993 L -47,81.4064
 L -62.8983,69.8556 L -76.0476,55.2518 L -85.8733,38.2332 L -91.9459,19.5437 L -94,-0 L -91.9459,-19.5437
 L -88.2822,-30.8192 L -76.5266,-23.6574 L -87.0911,-53.0579 L -114.105,-37.365 L -99.4358,-35.1122 L -103.684,-22.0386
 L -106,-0 L -103.684,22.0386 L -96.8358,43.1141 L -85.7558,62.3052 L -70.9278,78.7733 L -53,91.7987
 L -32.7558,100.812 L -11.08,105.419 L 0,105.419 L 0,106 L 7.5,106 z
M 45.4866,95.1439 L 53,91.7987 L 70.9278,78.7733 L 85.7558,62.3052 L 96.8358,43.1141 L 103.684,22.0386
 L 106,-0 L 103.684,-22.0386 L 96.8358,-43.1141 L 93.277,-49.2782 L 91.534,-42.0182 L 82.4255,-44.2049
 L 85.8733,-38.2332 L 91.9459,-19.5437 L 94,-0 L 91.9459,19.5437 L 85.8733,38.2332 L 76.0476,55.2518
 L 62.8983,69.8556 L 47,81.4064 L 40.6378,84.239 L 37.3842,70.8408 L 24.065,99.1003 L 54.2631,107.105
 z
M 12.6,64.6 L 21,64.6 L 21,56.2 L 16.8,56.2 L 16.8,43.6 L -16.8,43.6
 L -16.8,56.2 L -21,56.2 L -21,64.6 L -12.6,64.6 L -4.2,73 L 4.2,73
 z
" stroke="black" fill="lightgray" stroke-width="0.5"/>
</svg>
