<?xml version="1.0" standalone="no"?>
<!DOCTYPE svg PUBLIC "-//W3C//DTD SVG 1.1//EN" "http://www.w3.org/Graphics/SVG/1.1/DTD/svg11.dtd">
<svg width="40mm" height="20mm" viewBox="-20 -10 40 20" xmlns="http://www.w3.org/2000/svg" version="1.1">
<title>OpenSCAD Model</title>
<path d="
M 19.05,-10 L -19.05,-10 L -19.05,10 L 19.05,10 z
M -0.198364,-2.85916 L -0.588364,-2.93207 L -0.958328,-3.07539 L -1.29565,-3.28426 L -1.58887,-3.55154 L -1.82796,-3.86816
 L -2.00481,-4.22333 L -2.11339,-4.60493 L -2.14999,-5 L -2.11339,-5.39505 L -2.00481,-5.77666 L -1.82796,-6.13182
 L -1.58887,-6.44844 L -1.29565,-6.71573 L -0.958328,-6.92459 L -0.588364,-7.06792 L -0.198364,-7.14082 L 0.198364,-7.14082
 L 0.588364,-7.06792 L 0.958328,-6.92459 L 1.29565,-6.71573 L 1.58887,-6.44844 L 1.82796,-6.13182 L 2.00481,-5.77666
 L 2.11339,-5.39505 L 2.14999,-5 L 2.11339,-4.60493 L 2.00481,-4.22333 L 1.82796,-3.86816 L 1.58887,-3.55154
 L 1.29565,-3.28426 L 0.958328,-3.07539 L 0.588364,-2.93207 L 0.198364,-2.85916 z
M 9.32661,7.14082 L 8.93661,7.06792 L 8.56665,6.92459 L 8.22932,6.71573 L 7.93613,6.44844 L 7.69702,6.13182
 L 7.52017,5.77666 L 7.41161,5.39505 L 7.37498,5 L 7.41161,4.60493 L 7.52017,4.22333 L 7.69702,3.86816
 L 7.93613,3.55154 L 8.22932,3.28426 L 8.56665,3.07539 L 8.93661,2.93207 L 9.32661,2.85916 L 9.72337,2.85916
 L 10.1134,2.93207 L 10.4833,3.07539 L 10.8207,3.28426 L 11.1139,3.55154 L 11.353,3.86816 L 11.5298,4.22333
 L 11.6384,4.60493 L 11.675,5 L 11.6384,5.39505 L 11.5298,5.77666 L 11.353,6.13182 L 11.1139,6.44844
 L 10.8207,6.71573 L 10.4833,6.92459 L 10.1134,7.06792 L 9.72337,7.14082 z
M -9.72337,7.14082 L -10.1134,7.06792 L -10.4833,6.92459 L -10.8207,6.71573 L -11.1139,6.44844 L -11.353,6.13182
 L -11.5298,5.77666 L -11.6384,5.39505 L -11.675,5 L -11.6384,4.60493 L -11.5298,4.22333 L -11.353,3.86816
 L -11.1139,3.55154 L -10.8207,3.28426 L -10.4833,3.07539 L -10.1134,2.93207 L -9.72337,2.85916 L -9.32661,2.85916
 L -8.93661,2.93207 L -8.56665,3.07539 L -8.22932,3.28426 L -7.93613,3.55154 L -7.69702,3.86816 L -7.52017,4.22333
 L -7.41161,4.60493 L -7.37498,5 L -7.41161,5.39505 L -7.52017,5.77666 L -7.69702,6.13182 L -7.93613,6.44844
 L -8.22932,6.71573 L -8.56665,6.92459 L -8.93661,7.06792 L -9.32661,7.14082 z
" stroke="black" fill="lightgray" stroke-width="0.5"/>
</svg>
